<svg xmlns="http://www.w3.org/2000/svg" xmlns:xlink="http://www.w3.org/1999/xlink" width="500" height="500" viewBox="0 0 375 375"><clipPath id="a"><path transform="scale(.24)" d="M0 0h1562.5v1593.75H0z" fill-rule="evenodd"/></clipPath><g clip-path="url(#a)"><path d="M0 0h375v382.5H0z" fill="#fff"/></g><clipPath id="b"><path transform="scale(.24)" d="M0 0h1562.5v1562.5H0z" fill-rule="evenodd"/></clipPath><g clip-path="url(#b)"><path d="M0 0h375v375H0z" fill="#fff"/></g><clipPath id="c"><path transform="scale(.24)" d="M0 0h1562.5v1562.5H0z" fill-rule="evenodd"/></clipPath><g clip-path="url(#c)"><path d="M0 0h375v375H0z" fill="#fff"/></g><clipPath id="d"><path transform="scale(.24)" d="M0 0h1562.5v1562.5H0z" fill-rule="evenodd"/></clipPath><g clip-path="url(#d)"><symbol id="e"><path d="M.257.83C.34.83.381.786.381.698V.295C.381.207.34.163.257.163H.255v-.05C.255.103.26.098.27.098h.032V0H.243a.1.1 0 0 0-.077.03.094.094 0 0 0-.027.066v.067H.124C.041.163 0 .207 0 .295v.403C0 .786.041.83.124.83h.133M.14.715V.279c0-.005.002-.01.005-.014A.02.02 0 0 1 .159.259h.063c.005 0 .01.002.013.006a.02.02 0 0 1 .006.014v.436a.02.02 0 0 1-.006.014.016.016 0 0 1-.013.006H.159A.02.02 0 0 1 .145.729.021.021 0 0 1 .14.715z"/></symbol><symbol id="f"><path d="M.283.746H.39L.107 0H0l.283.746z"/></symbol><use xlink:href="#e" transform="matrix(63.94576 0 0 -63.94576 81.204 219.187)"/><use xlink:href="#f" transform="matrix(63.94576 0 0 -63.94576 111.45 212.729)"/><symbol id="g"><path d="M.257.647C.34.647.381.603.381.515V.132C.381.044.34 0 .257 0H0v.647h.257M.241.116v.416a.02.02 0 0 1-.006.014.016.016 0 0 1-.013.006H.14V.096h.082c.005 0 .01.002.013.006a.02.02 0 0 1 .006.014z"/></symbol><symbol id="h"><path d="M.14.647V0H0v.647h.14z"/></symbol><symbol id="i"><path d="M.257.657C.34.657.381.613.381.525V0h-.14v.217H.14V0H0v.525c0 .088.041.132.124.132h.133M.14.325h.101v.217a.02.02 0 0 1-.006.014.016.016 0 0 1-.013.006H.159A.02.02 0 0 1 .145.556.021.021 0 0 1 .14.542V.325z"/></symbol><symbol id="j"><path d="M.14.265V0H0v.647h.249C.332.647.373.603.373.515V.44C.373.387.354.353.316.338c.033-.012.05-.04.05-.082V0h-.14v.245c0 .013-.006.02-.019.02H.14m0 .287V.363h.074c.005 0 .01.002.013.006a.02.02 0 0 1 .006.014v.149a.02.02 0 0 1-.006.014.016.016 0 0 1-.013.006H.14z"/></symbol><symbol id="k"><path d="M.418.647.279.236V0h-.14v.236L0 .647h.132l.077-.27.077.27h.132z"/></symbol><use xlink:href="#g" transform="matrix(63.94576 0 0 -63.94576 142.133 208.125)" fill="#daa520"/><use xlink:href="#h" transform="matrix(63.94576 0 0 -63.94576 178.901 208.125)" fill="#daa520"/><use xlink:href="#i" transform="matrix(63.94576 0 0 -63.94576 200.259 208.125)" fill="#daa520"/><use xlink:href="#j" transform="matrix(63.94576 0 0 -63.94576 237.026 208.125)" fill="#daa520"/><use xlink:href="#k" transform="matrix(63.94576 0 0 -63.94576 269.637 208.125)" fill="#daa520"/></g></svg>